<?xml version="1.0" encoding="UTF-8" standalone="no"?>
<svg width="472px" height="447px" viewBox="0 0 472 447" version="1.1" xmlns="http://www.w3.org/2000/svg" xmlns:xlink="http://www.w3.org/1999/xlink">
    <!-- Generator: Sketch 3.7.1 (28215) - http://www.bohemiancoding.com/sketch -->
    <title>Group</title>
    <desc>Created with Sketch.</desc>
    <defs></defs>
    <g id="Page-1" stroke="none" stroke-width="1" fill="none" fill-rule="evenodd">
        <g id="Group">
            <path d="M192,447 C298.038672,447 384,361.038672 384,255 C384,227.982376 382.05054,190.842993 357.089844,170.347656 C304.335938,170.347656 284.636719,146.265625 284.636719,146.265625 C284.636719,146.265625 257.535156,120.792969 257.535156,74.703125 C244.086973,62.9252457 208.89609,59.6015625 192,59.6015625 C85.961328,59.6015625 0,148.961328 0,255 C0,361.038672 85.961328,447 192,447 Z M88.7878568,369.054261 C84.847445,370.607229 75.1464195,373.092879 75.1464195,358.957032 C75.1464194,324.585938 68.2162936,211.559758 73.7773453,182.675783 C75.6020693,173.198208 82.7093029,165.669001 87.3290135,159.561999 C96.7883906,147.057226 106.872693,140.775938 117.250002,137.765627 C125.239285,135.448047 142.867274,131.808009 157.010257,136.313656 C170.209249,140.518567 179.946861,152.491757 187.527345,161.000002 C187.527345,161.000002 216.719448,130.9698 241.47726,132.102613 C241.47726,132.102613 264.91959,131.904759 284.789516,148.924159 C293.343406,156.250913 301.164256,156.951791 306.284954,178.438503 L309.36816,356.03035 C309.36816,356.03035 309.36816,363.783127 301.563778,363.783127 C293.759395,363.783127 292.821651,356.03035 292.821651,356.03035 C292.821651,356.03035 289.836422,303.045516 288.604473,262.885666 C287.391233,223.335735 287.04179,188.466164 287.04179,188.466164 C287.04179,188.466164 274.09309,153.984961 240.065563,153.984961 C223.070965,153.984961 205.696865,164.821062 199.289882,191.3125 L201.48405,360.929688 C201.48405,360.929688 199.289882,370.630356 191.490772,369.054261 C183.691662,367.478165 185.722645,365.897154 184.346058,358.957032 L180.289064,191.312502 C180.289064,191.312502 167.78286,156.637741 134.911129,156.637741 C102.039398,156.637741 91.7645089,184.148289 91.7645089,194.378907 C91.7645089,272.056028 93.5625023,360.929688 93.5625023,360.929688 C93.5625023,360.929688 94.4284955,366.83121 88.7878568,369.054261 Z" id="Combined-Shape" fill="#6A73AE"></path>
            <path d="M350,164 C396.391919,164 434,127.287349 434,82 C434,36.7126505 396.391919,0 350,0 C303.608081,0 266,36.7126505 266,82 C266,127.287349 303.608081,164 350,164 Z M322.496094,48.9023438 C326.040779,37.6445883 343.386719,23.40625 343.386719,23.40625 C343.386719,23.40625 349.623317,42.1999447 355.867189,48.9023438 C359.907171,53.2390072 374.238281,56.5234375 374.238281,56.5234375 C374.238281,56.5234375 384.542969,137.144531 355.867187,146.109375 C347.218202,148.813288 341.151043,148.62564 336.335938,141.644531 C325.186523,125.479718 322.496094,89.7539063 322.496094,89.7539063 C322.496094,89.7539063 319.077237,59.7604737 322.496094,48.9023438 Z" id="Combined-Shape" fill="#6A73AE"></path>
            <rect id="Rectangle-1" fill="#6A73AE" x="386" y="227" width="25" height="101" rx="31"></rect>
            <rect id="Rectangle-1-Copy" fill="#6A73AE" x="415" y="199" width="25" height="129" rx="31"></rect>
            <circle id="Oval-3" fill="#E95B5A" cx="456" cy="213" r="12"></circle>
            <circle id="Oval-3-Copy" fill="#F3B525" cx="396" cy="211" r="12"></circle>
            <rect id="Rectangle-1-Copy-2" fill="#6A73AE" x="447" y="227" width="25" height="101" rx="31"></rect>
        </g>
    </g>
</svg>